<?xml version="1.0" encoding="UTF-8"?>
<svg baseProfile="full" version="1.1" viewBox="0 0 20 20" xmlns="http://www.w3.org/2000/svg"><g transform="scale(.75)"><svg width="26.667" height="26.667" version="1.1" viewBox="0 0 26.666668 26.666668" xml:space="preserve" xmlns="http://www.w3.org/2000/svg" xmlns:cc="http://creativecommons.org/ns#" xmlns:dc="http://purl.org/dc/elements/1.1/" xmlns:rdf="http://www.w3.org/1999/02/22-rdf-syntax-ns#" xmlns:svg="http://www.w3.org/2000/svg"><g transform="matrix(1.3333 0 0 -1.3333 0 26.667)"><path d="m0 0h20v20h-20z" fill="#35abc7"/></g></svg></g><svg width="20px" height="20px" version="1.1" viewBox="0 0 60.0 60.0" xmlns="http://www.w3.org/2000/svg"><svg width="60px" height="60px" enable-background="new 0 0 60 60" version="1.1" viewBox="0 0 60 60" xml:space="preserve" xmlns="http://www.w3.org/2000/svg" xmlns:xlink="http://www.w3.org/1999/xlink">
<path d="m57.432 9.3955l-11.787 12.095-1.6646 11.789c-0.048828 0.3457-0.1875 0.67285-0.40186 0.94824l-6.8032 8.7471-4.8921 13.698c-0.29199 0.81738-1.062 1.3281-1.8833 1.3281-0.22314 0-0.4502-0.038086-0.67285-0.11719-1.04-0.37207-1.582-1.5166-1.2104-2.5566l5-14c0.071289-0.2002 0.17432-0.3877 0.30469-0.55469l6.6729-8.5801 1.6816-11.909c0.05957-0.4209 0.25146-0.8125 0.54834-1.1162l12.244-12.562c0.77002-0.79102 2.0366-0.80762 2.8281-0.037109 0.79102 0.77148 0.80713 2.0371 0.036133 2.8281zm-35.018 27.19l-3.1421-3.1426 4.6802 1.3369 5.6338 5.6338c0.78027 0.78125 2.0479 0.78125 2.8281 0 0.78125-0.78125 0.78125-2.0469 0-2.8281l-6-6c-0.24023-0.24023-0.5376-0.41602-0.86475-0.50879l-7-2c-0.17871-0.050781-0.36328-0.077148-0.54932-0.077148h-4c-0.80908 0-1.5381 0.4873-1.8477 1.2344-0.30957 0.74805-0.13867 1.6074 0.43359 2.1797l6.4951 6.4951 0.92871 9.29c0.10352 1.0312 0.97266 1.8008 1.9878 1.8008 0.066406 0 0.13379-0.0029297 0.20166-0.0097656 1.0991-0.11035 1.9009-1.0898 1.791-2.1895l-1-10c-0.045898-0.45898-0.24951-0.88867-0.57617-1.2148zm-9.5386-9.0928c0.28467 0.32227 0.69434 0.50684 1.1245 0.50684h3.5c0.75635 0 1.3945-0.56348 1.4883-1.3135l0.81787-6.5428 2.1904 1.9715c0.32324 0.29102 0.75732 0.42773 1.1895 0.37305l4.9772-0.62213-8.4435 5.7198c-0.229 0.15527-0.28857 0.46582-0.13379 0.69434 0.09668 0.14258 0.25439 0.21973 0.41455 0.21973 0.09668 0 0.19385-0.02832 0.27979-0.085938l10.069-6.8212 0.8363-0.10455c0.71069-0.088623 1.2405-0.66156 1.3052-1.3461l18.789-12.728c0.229-0.15527 0.28857-0.46582 0.13379-0.69434s-0.46582-0.28613-0.69434-0.13379l-18.51 12.539c-0.31183-0.42902-0.83661-0.68433-1.3954-0.61346l-7.3198 0.91504-4.4907-4.042c-0.27539-0.24805-0.63281-0.38477-1.0034-0.38477h-3c-0.76904 0-1.4136 0.58203-1.4922 1.3467l-1 9.75c-0.011047 0.10754-0.0092163 0.21326 0.0020752 0.31659-0.022827 0.39386 0.10315 0.78192 0.3656 1.0799zm4.624-13.493c1.9341 0 3.5005-1.5664 3.5005-3.5s-1.5664-3.5-3.5005-3.5c-1.9331 0-3.4995 1.5664-3.4995 3.5s1.5664 3.5 3.4995 3.5zm-1.9995 22.5c-0.27637 0-0.5 0.22363-0.5 0.5v20c0 0.27637 0.22363 0.5 0.5 0.5s0.5-0.22363 0.5-0.5v-20c0-0.27637-0.22363-0.5-0.5-0.5zm33.952 14.512l-3.4518-6.0122-3.4511 6.0109c-0.33978 0.58801-0.54889 1.2612-0.54889 1.9891 0 2.2091 1.7908 4 4 4s4-1.7909 4-4c0-0.72736-0.20886-1.4001-0.54816-1.9878zm7.137-5.5031l-2.5889-4.5092-2.5883 4.5081c-0.25484 0.44101-0.41167 0.94592-0.41167 1.4919 0 1.6568 1.3431 3 3 3s3-1.3432 3-3c0-0.54552-0.15665-1.0501-0.41112-1.4908zm-5.863-6.5031l-1.7259-3.0061-1.7256 3.0054c-0.16989 0.29401-0.27444 0.63062-0.27444 0.99457 0 1.1046 0.89542 2 2 2s2-0.89545 2-2c0-0.36368-0.10443-0.70004-0.27408-0.9939z" fill="#fff"/>
</svg></svg></svg>
